# xmcd
#
# Track frame offsets: 
#        150
#        11186
#        27008
#        37635
#        58364
#        71969
#        87054
#        103628
#        113644
#        128462
#
# Disc length: 1917 seconds
#
# Revision: 0
# Processed by: cddbd v1.5.2PL0 Copyright (c) Steve Scherf et al.
# Submitted via: ExactAudioCopy v0.95b4
#
DISCID=78077b0a
DTITLE=GEORGE HAMILTON IV - STARS OF THE GRAND OLE OPRY
DYEAR=1998
DGENRE=COUNTRY
TTITLE0=MUSIC MAN'S DREAMS
TTITLE1=IT MUST BE LOVE
TTITLE2=GROWING ON ME
TTITLE3=WOULD YOU STILL BE MINE
TTITLE4=THE MAN I USED TO BE
TTITLE5=BACK AROUND TO ME
TTITLE6=THE WATER IS WIDE
TTITLE7=THE LIFE I LOVE
TTITLE8=ARE THE GOOD TIMES REALLY OVER
TTITLE9=TIL I GAIN CONTROL AGAIN
EXTD=
EXTT0=
EXTT1=
EXTT2=
EXTT3=
EXTT4=
EXTT5=
EXTT6=
EXTT7=
EXTT8=
EXTT9=
PLAYORDER=
